<svg width="550" height="130" viewBox="0 0 550 130" fill="none" xmlns="http://www.w3.org/2000/svg">
<path fill-rule="evenodd" clip-rule="evenodd" d="M260.567 39.8501H248.327V92.5001H260.567V39.8501ZM248.867 21.4901C247.487 22.8701 246.797 24.7001 246.797 26.9801C246.797 29.2601 247.457 31.0901 248.777 32.4701C250.097 33.8501 251.987 34.5401 254.447 34.5401C256.847 34.5401 258.707 33.8501 260.027 32.4701C261.407 31.0901 262.097 29.2601 262.097 26.9801C262.097 24.7001 261.407 22.8701 260.027 21.4901C258.707 20.0501 256.847 19.3301 254.447 19.3301C252.107 19.3301 250.247 20.0501 248.867 21.4901ZM215.03 91.4201C218.03 89.9801 220.49 88.0001 222.41 85.4801V91.6001C222.41 93.5801 222.05 95.5001 221.33 97.3601C220.67 99.2201 219.68 100.84 218.36 102.22C217.1 103.6 215.54 104.71 213.68 105.55C211.82 106.39 209.75 106.81 207.47 106.81C203.27 106.81 199.97 105.94 197.57 104.2C195.17 102.46 193.01 99.8201 191.09 96.2801L190.491 96.6446L183.89 108.078C184.125 108.35 184.365 108.617 184.61 108.88C186.29 110.74 188.24 112.33 190.46 113.65C192.68 115.03 195.17 116.08 197.93 116.8C200.75 117.58 203.87 117.97 207.29 117.97C211.73 117.97 215.63 117.25 218.99 115.81C222.41 114.43 225.26 112.51 227.54 110.05C229.82 107.65 231.53 104.83 232.67 101.59C233.87 98.3501 234.47 94.8701 234.47 91.1501V39.8501H229.07C225.342 39.8501 222.32 42.8722 222.32 46.6001C220.4 44.2001 217.97 42.3101 215.03 40.9301C212.09 39.4901 208.88 38.7701 205.4 38.7701C202.1 38.7701 198.86 39.4001 195.68 40.6601C192.56 41.8601 189.77 43.6301 187.31 45.9701C184.91 48.3101 182.96 51.1901 181.46 54.6101C180.02 57.9701 179.3 61.8401 179.3 66.2201C179.3 70.5401 180.05 74.4101 181.55 77.8301C183.05 81.1901 185.03 84.0401 187.49 86.3801C189.95 88.7201 192.71 90.5201 195.77 91.7801C198.89 92.9801 202.04 93.5801 205.22 93.5801C208.76 93.5801 212.03 92.8601 215.03 91.4201ZM213.5 81.1601C211.58 82.0001 209.48 82.4201 207.2 82.4201C204.98 82.4201 202.88 82.0001 200.9 81.1601C198.98 80.3201 197.3 79.1801 195.86 77.7401C194.42 76.2401 193.28 74.5001 192.44 72.5201C191.66 70.4801 191.27 68.3201 191.27 66.0401C191.27 63.7601 191.66 61.6301 192.44 59.6501C193.28 57.6701 194.42 55.9601 195.86 54.5201C197.3 53.0801 198.98 51.9401 200.9 51.1001C202.88 50.2601 204.98 49.8401 207.2 49.8401C209.48 49.8401 211.58 50.2601 213.5 51.1001C215.42 51.9401 217.07 53.1101 218.45 54.6101C219.83 56.0501 220.91 57.7601 221.69 59.7401C222.53 61.7201 222.95 63.8201 222.95 66.0401C222.95 68.3201 222.53 70.4501 221.69 72.4301C220.91 74.4101 219.83 76.1501 218.45 77.6501C217.07 79.1501 215.42 80.3201 213.5 81.1601ZM298.985 93.5801C295.805 93.5801 292.655 92.9801 289.535 91.7801C286.475 90.5201 283.715 88.7201 281.255 86.3801C278.795 84.0401 276.815 81.1901 275.315 77.8301C273.815 74.4101 273.065 70.5401 273.065 66.2201C273.065 61.8401 273.785 57.9701 275.225 54.6101C276.725 51.1901 278.675 48.3101 281.075 45.9701C283.535 43.6301 286.325 41.8601 289.445 40.6601C292.625 39.4001 295.865 38.7701 299.165 38.7701C302.645 38.7701 305.855 39.4301 308.795 40.7501C311.735 42.0701 314.165 43.8701 316.085 46.1501C316.085 42.6707 318.906 39.8501 322.385 39.8501H328.235V92.5001H316.085V85.6601C314.165 88.1201 311.705 90.0701 308.705 91.5101C305.705 92.8901 302.465 93.5801 298.985 93.5801ZM300.965 82.4201C303.245 82.4201 305.345 82.0001 307.265 81.1601C309.185 80.3201 310.835 79.1501 312.215 77.6501C313.595 76.1501 314.675 74.4101 315.455 72.4301C316.295 70.4501 316.715 68.3201 316.715 66.0401C316.715 63.8201 316.295 61.7201 315.455 59.7401C314.675 57.7601 313.595 56.0501 312.215 54.6101C310.835 53.1101 309.185 51.9401 307.265 51.1001C305.345 50.2601 303.245 49.8401 300.965 49.8401C298.745 49.8401 296.645 50.2601 294.665 51.1001C292.745 51.9401 291.065 53.0801 289.625 54.5201C288.185 55.9601 287.045 57.6701 286.205 59.6501C285.425 61.6301 285.035 63.7601 285.035 66.0401C285.035 68.3201 285.425 70.4801 286.205 72.5201C287.045 74.5001 288.185 76.2401 289.625 77.7401C291.065 79.1801 292.745 80.3201 294.665 81.1601C296.645 82.0001 298.745 82.4201 300.965 82.4201ZM358.477 39.8501H346.417V92.5001H358.567V63.6101C358.567 58.9901 359.737 55.4501 362.077 52.9901C364.477 50.5301 367.417 49.3001 370.897 49.3001C374.857 49.3001 377.827 50.5001 379.807 52.9001C381.787 55.2401 382.777 58.4501 382.777 62.5301V92.5001H395.107V61.2701C395.107 54.1901 393.247 48.6701 389.527 44.7101C385.867 40.7501 380.767 38.7701 374.227 38.7701C370.807 38.7701 367.747 39.4601 365.047 40.8401C362.407 42.2201 360.217 44.0501 358.477 46.3301V39.8501ZM409.339 25.9001H421.489V46.1501C423.289 43.8701 425.509 42.0701 428.149 40.7501C430.849 39.4301 433.879 38.7701 437.239 38.7701C443.779 38.7701 448.879 40.7501 452.539 44.7101C456.259 48.6701 458.119 54.1901 458.119 61.2701V92.5001H445.699V62.6201C445.699 58.4801 444.709 55.2401 442.729 52.9001C440.749 50.5001 437.779 49.3001 433.819 49.3001C432.139 49.3001 430.549 49.6301 429.049 50.2901C427.549 50.8901 426.229 51.7901 425.089 52.9901C424.009 54.1901 423.139 55.6901 422.479 57.4901C421.879 59.2901 421.579 61.3301 421.579 63.6101V92.5001H409.339V25.9001ZM487.022 91.7801C490.142 92.9801 493.292 93.5801 496.472 93.5801C499.952 93.5801 503.192 92.8901 506.192 91.5101C509.192 90.0701 511.652 88.1201 513.572 85.6601V92.5001H525.722V39.8501H519.872C516.393 39.8501 513.572 42.6707 513.572 46.1501C511.652 43.8701 509.222 42.0701 506.282 40.7501C503.342 39.4301 500.132 38.7701 496.652 38.7701C493.352 38.7701 490.112 39.4001 486.932 40.6601C483.812 41.8601 481.022 43.6301 478.562 45.9701C476.162 48.3101 474.212 51.1901 472.712 54.6101C471.272 57.9701 470.552 61.8401 470.552 66.2201C470.552 70.5401 471.302 74.4101 472.802 77.8301C474.302 81.1901 476.282 84.0401 478.742 86.3801C481.202 88.7201 483.962 90.5201 487.022 91.7801ZM504.752 81.1601C502.832 82.0001 500.732 82.4201 498.452 82.4201C496.232 82.4201 494.132 82.0001 492.152 81.1601C490.232 80.3201 488.552 79.1801 487.112 77.7401C485.672 76.2401 484.532 74.5001 483.692 72.5201C482.912 70.4801 482.522 68.3201 482.522 66.0401C482.522 63.7601 482.912 61.6301 483.692 59.6501C484.532 57.6701 485.672 55.9601 487.112 54.5201C488.552 53.0801 490.232 51.9401 492.152 51.1001C494.132 50.2601 496.232 49.8401 498.452 49.8401C500.732 49.8401 502.832 50.2601 504.752 51.1001C506.672 51.9401 508.322 53.1101 509.702 54.6101C511.082 56.0501 512.162 57.7601 512.942 59.7401C513.782 61.7201 514.202 63.8201 514.202 66.0401C514.202 68.3201 513.782 70.4501 512.942 72.4301C512.162 74.4101 511.082 76.1501 509.702 77.6501C508.322 79.1501 506.672 80.3201 504.752 81.1601Z" fill="#006AFF"/>
<path fill-rule="evenodd" clip-rule="evenodd" d="M197.57 104.2C195.372 102.606 193.375 100.257 191.579 97.1531C191.414 96.8685 191.251 96.5774 191.09 96.2801L190.491 96.6446L191.488 94.9169L191.969 95.8033C193.842 99.2565 195.913 101.764 198.157 103.39C200.328 104.965 203.396 105.81 207.47 105.81C209.625 105.81 211.552 105.414 213.268 104.639C215.016 103.849 216.461 102.816 217.622 101.546L217.629 101.537L217.637 101.529C218.856 100.254 219.773 98.7571 220.388 97.0257L220.392 97.0123L220.397 96.9991C221.073 95.2534 221.41 93.4557 221.41 91.6001V88.1443C219.72 89.8382 217.736 91.2306 215.463 92.3216C212.319 93.8305 208.9 94.5801 205.22 94.5801C201.911 94.5801 198.64 93.9552 195.411 92.7134L195.4 92.7092L195.389 92.7048C192.212 91.3965 189.348 89.5276 186.801 87.1046C184.239 84.6673 182.186 81.7069 180.637 78.2377L180.634 78.2317C179.071 74.6668 178.3 70.6568 178.3 66.2201C178.3 61.731 179.038 57.7227 180.541 54.2162L180.543 54.2123L180.544 54.2084C182.09 50.684 184.11 47.6936 186.612 45.2541L186.616 45.2498L186.621 45.2455C189.173 42.8175 192.074 40.9765 195.316 39.7286C198.608 38.425 201.971 37.7701 205.4 37.7701C209.02 37.7701 212.379 38.5195 215.462 40.0283C217.689 41.0742 219.643 42.405 221.32 44.0213C221.32 41.1653 223.635 38.8501 226.491 38.8501H235.47V91.1501C235.47 94.9767 234.853 98.5726 233.611 101.93C232.426 105.292 230.646 108.231 228.269 110.734C225.883 113.308 222.911 115.305 219.374 116.733C215.868 118.234 211.833 118.97 207.29 118.97C203.798 118.97 200.589 118.572 197.671 117.766C194.828 117.024 192.249 115.939 189.941 114.505C187.643 113.137 185.619 111.488 183.873 109.556C183.7 109.371 183.53 109.183 183.361 108.993L183.89 108.078C184.125 108.35 184.365 108.617 184.61 108.88C186.29 110.74 188.24 112.33 190.46 113.65C192.68 115.03 195.17 116.08 197.93 116.8C200.75 117.58 203.87 117.97 207.29 117.97C211.73 117.97 215.63 117.25 218.99 115.81C222.41 114.43 225.26 112.51 227.54 110.05C229.82 107.65 231.53 104.83 232.67 101.59C233.87 98.3501 234.47 94.8701 234.47 91.1501V39.8501H229.07C225.342 39.8501 222.32 42.8722 222.32 46.6001C222.001 46.201 221.667 45.8161 221.32 45.4452C219.578 43.5857 217.481 42.0806 215.03 40.9301C212.09 39.4901 208.88 38.7701 205.4 38.7701C202.1 38.7701 198.86 39.4001 195.68 40.6601C192.56 41.8601 189.77 43.6301 187.31 45.9701C184.91 48.3101 182.96 51.1901 181.46 54.6101C180.02 57.9701 179.3 61.8401 179.3 66.2201C179.3 70.5401 180.05 74.4101 181.55 77.8301C183.05 81.1901 185.03 84.0401 187.49 86.3801C189.95 88.7201 192.71 90.5201 195.77 91.7801C198.89 92.9801 202.04 93.5801 205.22 93.5801C208.76 93.5801 212.03 92.8601 215.03 91.4201C217.532 90.2189 219.659 88.6421 221.41 86.6895C221.758 86.3012 222.092 85.8981 222.41 85.4801V91.6001C222.41 93.5801 222.05 95.5001 221.33 97.3601C220.67 99.2201 219.68 100.84 218.36 102.22C217.1 103.6 215.54 104.71 213.68 105.55C211.82 106.39 209.75 106.81 207.47 106.81C203.27 106.81 199.97 105.94 197.57 104.2ZM220.769 72.0395L220.764 72.0515L220.76 72.0636C220.023 73.9341 219.007 75.5676 217.714 76.973C216.431 78.368 214.896 79.4579 213.099 80.2439C211.316 81.0239 209.354 81.4201 207.2 81.4201C205.112 81.4201 203.147 81.0261 201.296 80.2417C199.492 79.4518 197.921 78.3847 196.574 77.0401C195.229 75.6366 194.16 74.0079 193.368 72.1461C192.637 70.23 192.27 68.1971 192.27 66.0401C192.27 63.8812 192.638 61.8804 193.366 60.0287C194.158 58.1653 195.226 56.5685 196.567 55.2272C197.915 53.8792 199.489 52.8098 201.296 52.0185C203.147 51.234 205.112 50.8401 207.2 50.8401C209.354 50.8401 211.316 51.2362 213.099 52.0162C214.896 52.8022 216.431 53.8921 217.714 55.2871L217.721 55.2946L217.728 55.302C219.012 56.6419 220.024 58.2394 220.76 60.1066L220.764 60.1187L220.769 60.1306C221.555 61.9831 221.95 63.9499 221.95 66.0401C221.95 68.1941 221.554 70.1904 220.769 72.0395ZM195.86 77.7401C197.3 79.1801 198.98 80.3201 200.9 81.1601C202.88 82.0001 204.98 82.4201 207.2 82.4201C209.48 82.4201 211.58 82.0001 213.5 81.1601C215.42 80.3201 217.07 79.1501 218.45 77.6501C219.83 76.1501 220.91 74.4101 221.69 72.4301C222.53 70.4501 222.95 68.3201 222.95 66.0401C222.95 63.8201 222.53 61.7201 221.69 59.7401C220.91 57.7601 219.83 56.0501 218.45 54.6101C217.07 53.1101 215.42 51.9401 213.5 51.1001C211.58 50.2601 209.48 49.8401 207.2 49.8401C204.98 49.8401 202.88 50.2601 200.9 51.1001C198.98 51.9401 197.3 53.0801 195.86 54.5201C194.42 55.9601 193.28 57.6701 192.44 59.6501C191.66 61.6301 191.27 63.7601 191.27 66.0401C191.27 68.3201 191.66 70.4801 192.44 72.5201C193.28 74.5001 194.42 76.2401 195.86 77.7401ZM261.567 38.8501H247.327V93.5001H261.567V38.8501ZM245.797 26.9801C245.797 24.487 246.559 22.3887 248.152 20.7906C249.753 19.1248 251.89 18.3301 254.447 18.3301C257.05 18.3301 259.199 19.1168 260.75 20.7984C262.338 22.3955 263.097 24.491 263.097 26.9801C263.097 29.4731 262.336 31.5713 260.742 33.1694C259.188 34.789 257.041 35.5401 254.447 35.5401C251.797 35.5401 249.614 34.7913 248.055 33.1613C246.523 31.56 245.797 29.4644 245.797 26.9801ZM254.447 19.3301C256.847 19.3301 258.707 20.0501 260.027 21.4901C261.407 22.8701 262.097 24.7001 262.097 26.9801C262.097 29.2601 261.407 31.0901 260.027 32.4701C258.707 33.8501 256.847 34.5401 254.447 34.5401C251.987 34.5401 250.097 33.8501 248.777 32.4701C247.457 31.0901 246.797 29.2601 246.797 26.9801C246.797 24.7001 247.487 22.8701 248.867 21.4901C250.247 20.0501 252.107 19.3301 254.447 19.3301ZM289.155 92.7048L289.165 92.7092L289.176 92.7134C292.405 93.9552 295.676 94.5801 298.985 94.5801C302.602 94.5801 305.985 93.8621 309.123 92.4186L309.131 92.4151L309.138 92.4116C311.41 91.3211 313.395 89.9448 315.085 88.2816V93.5001H329.235V38.8501H319.898C317.24 38.8501 315.085 41.0048 315.085 43.6628C313.401 42.1151 311.439 40.8407 309.205 39.8378C306.126 38.4555 302.775 37.7701 299.165 37.7701C295.736 37.7701 292.373 38.425 289.082 39.7285C285.839 40.9765 282.939 42.8175 280.386 45.2455L280.382 45.2498L280.377 45.2541C277.875 47.6936 275.855 50.684 274.309 54.2084L274.308 54.2123L274.306 54.2162C272.803 57.7227 272.065 61.731 272.065 66.2201C272.065 70.6568 272.836 74.6668 274.399 78.2317L274.402 78.2377C275.951 81.7069 278.004 84.6673 280.566 87.1046C283.113 89.5276 285.977 91.3965 289.155 92.7048ZM316.085 85.6601C315.767 86.0681 315.433 86.4621 315.085 86.8421C313.334 88.7529 311.208 90.3089 308.705 91.5101C305.705 92.8901 302.465 93.5801 298.985 93.5801C295.805 93.5801 292.655 92.9801 289.535 91.7801C286.475 90.5201 283.715 88.7201 281.255 86.3801C278.795 84.0401 276.815 81.1901 275.315 77.8301C273.815 74.4101 273.065 70.5401 273.065 66.2201C273.065 61.8401 273.785 57.9701 275.225 54.6101C276.725 51.1901 278.675 48.3101 281.075 45.9701C283.535 43.6301 286.325 41.8601 289.445 40.6601C292.625 39.4001 295.865 38.7701 299.165 38.7701C302.645 38.7701 305.855 39.4301 308.795 40.7501C311.246 41.8506 313.343 43.2848 315.085 45.0526C315.433 45.4052 315.766 45.771 316.085 46.1501C316.085 42.6707 318.906 39.8501 322.385 39.8501H328.235V92.5001H316.085V85.6601ZM314.535 72.0395L314.53 72.0515L314.525 72.0636C313.788 73.9341 312.772 75.5676 311.479 76.973C310.196 78.368 308.661 79.4579 306.864 80.2439C305.082 81.0239 303.12 81.4201 300.965 81.4201C298.877 81.4201 296.912 81.0261 295.061 80.2417C293.257 79.4518 291.686 78.3847 290.34 77.0401C288.994 75.6367 287.925 74.0079 287.133 72.1462C286.403 70.2301 286.035 68.1972 286.035 66.0401C286.035 63.8812 286.403 61.8804 287.131 60.0286C287.923 58.1653 288.991 56.5684 290.332 55.2272C291.68 53.8792 293.254 52.8098 295.061 52.0185C296.912 51.234 298.877 50.8401 300.965 50.8401C303.12 50.8401 305.082 51.2362 306.864 52.0162C308.661 52.8022 310.196 53.8921 311.479 55.2871L311.486 55.2946L311.493 55.302C312.777 56.6419 313.789 58.2394 314.525 60.1066L314.53 60.1187L314.535 60.1306C315.321 61.9831 315.715 63.9499 315.715 66.0401C315.715 68.1941 315.319 70.1904 314.535 72.0395ZM289.625 77.7401C291.065 79.1801 292.745 80.3201 294.665 81.1601C296.645 82.0001 298.745 82.4201 300.965 82.4201C303.245 82.4201 305.345 82.0001 307.265 81.1601C309.185 80.3201 310.835 79.1501 312.215 77.6501C313.595 76.1501 314.675 74.4101 315.455 72.4301C316.295 70.4501 316.715 68.3201 316.715 66.0401C316.715 63.8201 316.295 61.7201 315.455 59.7401C314.675 57.7601 313.595 56.0501 312.215 54.6101C310.835 53.1101 309.185 51.9401 307.265 51.1001C305.345 50.2601 303.245 49.8401 300.965 49.8401C298.745 49.8401 296.645 50.2601 294.665 51.1001C292.745 51.9401 291.065 53.0801 289.625 54.5201C288.185 55.9601 287.045 57.6701 286.205 59.6501C285.425 61.6301 285.035 63.7601 285.035 66.0401C285.035 68.3201 285.425 70.4801 286.205 72.5201C287.045 74.5001 288.185 76.2401 289.625 77.7401ZM359.477 38.8501H345.417V93.5001H359.567V63.6101C359.567 59.1556 360.692 55.8993 362.797 53.6839C365.005 51.4225 367.685 50.3001 370.897 50.3001C374.646 50.3001 377.295 51.4271 379.035 53.5365L379.039 53.5413L379.043 53.546C380.826 55.6531 381.777 58.6076 381.777 62.5301V93.5001H396.107V61.2701C396.107 54.0167 394.198 48.2241 390.258 44.028C386.369 39.8227 380.98 37.7701 374.227 37.7701C370.669 37.7701 367.45 38.4889 364.592 39.9496L364.587 39.9517L364.583 39.9539C362.656 40.9612 360.953 42.201 359.477 43.6729V38.8501ZM370.897 49.3001C367.417 49.3001 364.477 50.5301 362.077 52.9901C359.737 55.4501 358.567 58.9901 358.567 63.6101V92.5001H346.417V39.8501H358.477V46.3301C358.795 45.913 359.128 45.511 359.477 45.1241C361.033 43.3957 362.89 41.9677 365.047 40.8401C367.747 39.4601 370.807 38.7701 374.227 38.7701C380.767 38.7701 385.867 40.7501 389.527 44.7101C393.247 48.6701 395.107 54.1901 395.107 61.2701V92.5001H382.777V62.5301C382.777 58.4501 381.787 55.2401 379.807 52.9001C377.827 50.5001 374.857 49.3001 370.897 49.3001ZM422.489 24.9001H408.339V93.5001H422.579V63.6101C422.579 61.4228 422.866 59.4971 423.423 57.8206C424.045 56.1298 424.85 54.7537 425.824 53.669C426.865 52.5758 428.062 51.7621 429.421 51.2186L429.437 51.2122L429.452 51.2054C430.822 50.6027 432.274 50.3001 433.819 50.3001C437.569 50.3001 440.218 51.4271 441.958 53.5365L441.962 53.5413L441.966 53.546C443.747 55.6507 444.699 58.6334 444.699 62.6201V93.5001H459.119V61.2701C459.119 54.0168 457.211 48.2242 453.271 44.0282C449.382 39.8227 443.992 37.7701 437.239 37.7701C433.745 37.7701 430.562 38.4573 427.71 39.8517L427.706 39.8537L427.702 39.8556C425.747 40.833 424.009 42.0636 422.489 43.546V24.9001ZM425.089 52.9901C424.009 54.1901 423.139 55.6901 422.479 57.4901C421.879 59.2901 421.579 61.3301 421.579 63.6101V92.5001H409.339V25.9001H421.489V46.1501C421.809 45.7447 422.143 45.3544 422.489 44.9794C424.092 43.2451 425.979 41.8354 428.149 40.7501C430.849 39.4301 433.879 38.7701 437.239 38.7701C443.779 38.7701 448.879 40.7501 452.539 44.7101C456.259 48.6701 458.119 54.1901 458.119 61.2701V92.5001H445.699V62.6201C445.699 58.4801 444.709 55.2401 442.729 52.9001C440.749 50.5001 437.779 49.3001 433.819 49.3001C432.139 49.3001 430.549 49.6301 429.049 50.2901C427.549 50.8901 426.229 51.7901 425.089 52.9901ZM486.641 92.7048L486.652 92.7092L486.663 92.7134C489.892 93.9552 493.163 94.5801 496.472 94.5801C500.088 94.5801 503.472 93.8621 506.61 92.4186L506.617 92.4151L506.625 92.4116C508.897 91.3211 510.882 89.9448 512.572 88.2816V93.5001H526.722V38.8501H517.385C514.727 38.8501 512.572 41.0048 512.572 43.6628C510.888 42.1151 508.925 40.8408 506.692 39.8378C503.613 38.4555 500.262 37.7701 496.652 37.7701C493.223 37.7701 489.86 38.4249 486.569 39.7283C483.326 40.9762 480.425 42.8174 477.873 45.2455L477.868 45.2498L477.864 45.2541C475.362 47.6936 473.342 50.684 471.796 54.2084L471.795 54.2123L471.793 54.2162C470.29 57.7227 469.552 61.731 469.552 66.2201C469.552 70.6568 470.323 74.6668 471.886 78.2317L471.889 78.2377C473.438 81.7069 475.491 84.6673 478.053 87.1046C480.6 89.5276 483.464 91.3965 486.641 92.7048ZM513.572 85.6601C513.254 86.0681 512.92 86.4621 512.572 86.8421C510.821 88.753 508.694 90.3089 506.192 91.5101C503.192 92.8901 499.952 93.5801 496.472 93.5801C493.292 93.5801 490.142 92.9801 487.022 91.7801C483.962 90.5201 481.202 88.7201 478.742 86.3801C476.282 84.0401 474.302 81.1901 472.802 77.8301C471.302 74.4101 470.552 70.5401 470.552 66.2201C470.552 61.8401 471.272 57.9701 472.712 54.6101C474.212 51.1901 476.162 48.3101 478.562 45.9701C481.022 43.6301 483.812 41.8601 486.932 40.6601C490.112 39.4001 493.352 38.7701 496.652 38.7701C500.132 38.7701 503.342 39.4301 506.282 40.7501C508.733 41.8506 510.83 43.2848 512.572 45.0526C512.919 45.4052 513.253 45.771 513.572 46.1501C513.572 42.6707 516.393 39.8501 519.872 39.8501H525.722V92.5001H513.572V85.6601ZM512.021 72.0395L512.016 72.0515L512.012 72.0636C511.275 73.9341 510.259 75.5676 508.966 76.973C507.683 78.368 506.148 79.4579 504.351 80.2439C502.568 81.0239 500.606 81.4201 498.452 81.4201C496.364 81.4201 494.398 81.026 492.547 80.2414C490.744 79.4516 489.172 78.3846 487.826 77.0401C486.481 75.6366 485.412 74.0077 484.62 72.1458C483.889 70.2298 483.522 68.197 483.522 66.0401C483.522 63.8812 483.89 61.8804 484.618 60.0286C485.41 58.1653 486.478 56.5684 487.819 55.2272C489.167 53.8794 490.741 52.8099 492.547 52.0187C494.398 51.2341 496.364 50.8401 498.452 50.8401C500.606 50.8401 502.568 51.2362 504.351 52.0162C506.148 52.8022 507.683 53.8921 508.966 55.2871L508.973 55.2946L508.98 55.302C510.264 56.6419 511.276 58.2394 512.012 60.1066L512.016 60.1187L512.021 60.1306C512.807 61.9831 513.202 63.9499 513.202 66.0401C513.202 68.1941 512.806 70.1904 512.021 72.0395ZM483.692 72.5201C484.532 74.5001 485.672 76.2401 487.112 77.7401C488.552 79.1801 490.232 80.3201 492.152 81.1601C494.132 82.0001 496.232 82.4201 498.452 82.4201C500.732 82.4201 502.832 82.0001 504.752 81.1601C506.672 80.3201 508.322 79.1501 509.702 77.6501C511.082 76.1501 512.162 74.4101 512.942 72.4301C513.782 70.4501 514.202 68.3201 514.202 66.0401C514.202 63.8201 513.782 61.7201 512.942 59.7401C512.162 57.7601 511.082 56.0501 509.702 54.6101C508.322 53.1101 506.672 51.9401 504.752 51.1001C502.832 50.2601 500.732 49.8401 498.452 49.8401C496.232 49.8401 494.132 50.2601 492.152 51.1001C490.232 51.9401 488.552 53.0801 487.112 54.5201C485.672 55.9601 484.532 57.6701 483.692 59.6501C482.912 61.6301 482.522 63.7601 482.522 66.0401C482.522 68.3201 482.912 70.4801 483.692 72.5201ZM248.327 92.5001V39.8501H260.567V92.5001H248.327Z" fill="#006AFF"/>
<path fill-rule="evenodd" clip-rule="evenodd" d="M80 130C115.899 130 145 100.899 145 65C145 54.9427 142.716 45.4188 138.638 36.919L108.858 88.5C106.459 92.6412 100.49 92.671 98.0504 88.5539L98.0215 88.5051H97.9759L96.2514 85.5182L95.4999 84.25L95.4804 84.1828L75.4655 49.5159C74.8329 48.888 73.9617 48.5 72.9999 48.5C72.1061 48.5 71.2905 48.8351 70.6719 49.3865L34.7285 111.642C46.4326 123.005 62.3994 130 80 130ZM18.8621 87.1237L45.9247 40.25L45.9516 40.2034C47.096 38.2211 49.2111 37 51.5 37H68.5L68.5223 37L69.2399 37C71.7208 37 74.0127 38.3255 75.2499 40.4758L90.9061 67.593L121.356 14.8514C110.119 5.57365 95.7104 0 80 0C44.1015 0 15 29.1015 15 65C15 72.7682 16.3627 80.2181 18.8621 87.1237Z" fill="#006AFF"/>
</svg>
